<svg width="17" height="16" viewBox="0 0 17 16" fill="none" xmlns="http://www.w3.org/2000/svg">
<path d="M5.66665 8C5.66665 8.64433 5.14431 9.16667 4.49998 9.16667C3.85565 9.16667 3.33331 8.64433 3.33331 8C3.33331 7.35567 3.85565 6.83334 4.49998 6.83334C5.14431 6.83334 5.66665 7.35567 5.66665 8ZM9.66665 8C9.66665 8.64433 9.14431 9.16667 8.49998 9.16667C7.85565 9.16667 7.33331 8.64433 7.33331 8C7.33331 7.35567 7.85565 6.83334 8.49998 6.83334C9.14431 6.83334 9.66665 7.35567 9.66665 8ZM12.5 9.16667C13.1443 9.16667 13.6666 8.64433 13.6666 8C13.6666 7.35567 13.1443 6.83334 12.5 6.83334C11.8556 6.83334 11.3333 7.35567 11.3333 8C11.3333 8.64433 11.8556 9.16667 12.5 9.16667Z" fill="#AFAFAF"/>
</svg>
